<?xml version="1.0" encoding="UTF-8"?>
<svg id="Leader" xmlns="http://www.w3.org/2000/svg" xmlns:xlink="http://www.w3.org/1999/xlink" viewBox="0 0 70 70">
  <defs>
    <style>
      .cls-1 {
        fill: #ff6b6b;
      }

      .cls-2 {
        fill: #fff;
      }

      .cls-3 {
        fill: none;
        stroke: #000;
        stroke-linecap: round;
        stroke-linejoin: round;
      }

      .cls-4 {
        clip-path: url(#clippath);
      }
    </style>
    <clipPath id="clippath">
      <path class="cls-2" d="M63.66,47.52c-.76-.36-2.31-.4-3.11.33-.71.65-.74,1.5-.76,2.24-.03,1.09-.05,1.87-2.09,2.2-2.33.38-3.84-.7-4.31-1.1.48-3.21.25-7-.33-11.27,5.15-6.2,6.22-10.72,5.9-13.77.06,0,.13,0,.19-.02.19-.05.33-.21.36-.4.06-.4,1.44-9.78-5.29-17.44-3.65-3.74-8.12-5.05-12.6-3.69-3.43,1.04-6.08,3.37-7.29,5.55-3.89-.19-9.75,1.6-13.25,4.12-2.32-1.35-5.18-1.38-7.54-.07-2.99,1.66-4.68,5.04-4.65,9.28.07,8.52,4.76,15.58,4.96,15.88.12.18.35.26.57.2.21-.07.35-.27.35-.49-.04-1.18.11-4.14,1.03-5.85.06.37.11.64.14.8-.25.64-1.08,3.16.13,5.18.71,1.19,1.98,1.96,3.78,2.3-.8.64-1.37,1.22-1.54,1.42-1.75,2.12-2.49,4.24-2.16,6.14.31,1.73,1.5,3.22,3.6,4.45.13.06,2.95,1.33,5.33-.3.11.22.23.43.36.63-.39.73-.63,1.57-.72,2.51-.21,2.16.47,3.87,2.04,5.07,1.49,1.15,3.7,1.73,6.21,1.88.86,1.21,1.1,1.67,1.15,1.84.31,1.15,1.34,2.69,2.68,3.42.53.28,1.07.43,1.62.43.32,0,.65-.05.96-.15,2.72-.88,5.26-3.95,6.36-7.67,3.55-1.38,5.67-3.65,6.81-6.65.68.33,2.06.89,4.32,1.36,4.91,1.03,6.69-1.9,7.22-3.21.47-1.14,1.7-4.16-.43-5.15Z"/>
    </clipPath>
  </defs>
  <g id="_レイヤー_6" data-name="レイヤー 6">
    <g>
      <path class="cls-2" d="M63.66,47.52c-.76-.36-2.31-.4-3.11.33-.71.65-.74,1.5-.76,2.24-.03,1.09-.05,1.87-2.09,2.2-2.33.38-3.84-.7-4.31-1.1.48-3.21.25-7-.33-11.27,5.15-6.2,6.22-10.72,5.9-13.77.06,0,.13,0,.19-.02.19-.05.33-.21.36-.4.06-.4,1.44-9.78-5.29-17.44-3.65-3.74-8.12-5.05-12.6-3.69-3.43,1.04-6.08,3.37-7.29,5.55-3.89-.19-9.75,1.6-13.25,4.12-2.32-1.35-5.18-1.38-7.54-.07-2.99,1.66-4.68,5.04-4.65,9.28.07,8.52,4.76,15.58,4.96,15.88.12.18.35.26.57.2.21-.07.35-.27.35-.49-.04-1.18.11-4.14,1.03-5.85.06.37.11.64.14.8-.25.64-1.08,3.16.13,5.18.71,1.19,1.98,1.96,3.78,2.3-.8.64-1.37,1.22-1.54,1.42-1.75,2.12-2.49,4.24-2.16,6.14.31,1.73,1.5,3.22,3.6,4.45.13.06,2.95,1.33,5.33-.3.11.22.23.43.36.63-.39.73-.63,1.57-.72,2.51-.21,2.16.47,3.87,2.04,5.07,1.49,1.15,3.7,1.73,6.21,1.88.86,1.21,1.1,1.67,1.15,1.84.31,1.15,1.34,2.69,2.68,3.42.53.28,1.07.43,1.62.43.32,0,.65-.05.96-.15,2.72-.88,5.26-3.95,6.36-7.67,3.55-1.38,5.67-3.65,6.81-6.65.68.33,2.06.89,4.32,1.36,4.91,1.03,6.69-1.9,7.22-3.21.47-1.14,1.7-4.16-.43-5.15Z"/>
      <g class="cls-4">
        <path class="cls-1" d="M44.2,19.81l-.95,6.17h-5.52c-6.51,0-11.83-5.32-11.83-11.83h0c0-6.51,5.32-11.83,11.83-11.83h8.01c6.51,0,13.85,4.85,13.85,11.35l.29,14.55c-2.17-5.32-1.99-4.37-4.13-6.86-3.07-3.56-2.61-1.77-3.4-2.97-2.58-3.95-4.22-1.95-5.24.84-.36.99-1.99.58-2.92.58Z"/>
        <path class="cls-1" d="M53.39,51.2c1.59.21,3.36-1.45,3.88-3.24.92-3.21,10.46-2.66,10.03,2.5-.3,3.61-5.53,6.11-6.71,6.29-4.74.71-6.71-1.18-8.03-2.22"/>
      </g>
    </g>
  </g>
  <path class="cls-3" d="M17.03,15.12c1.94-3.64,10.57-6.89,15.64-6.49M56.23,22.74c.53.51.83.87.83.87,0,0,1.48-9.46-5.15-17.01-8.61-8.82-18.85-1.2-19.69,3.32M19.12,12.81c-4.77-3.04-11.76.14-11.69,8.61s4.87,15.6,4.87,15.6c0,0-.16-5.35,1.85-7.09M24.88,38.67c.16-.03.32-.06.49-.09,6.79-1.34,12.39-3.06,16.07-5.09M15.07,19.54c-2.06,5.45-.57,12.47-.57,12.47,0,0-2.85,6.52,4.67,7.1M35.91,49.69s-11.86-3.39-12.65,4.66,12.12,7.36,20.12,4.39,8.68-10.32,7.2-21.02c10.75-12.81,3.97-18.48,2.75-18.74s-.9-1.22-3.02-2.49-3.49,3.81-3.49,3.81c0,0-.69-.37-2.11-.42s-.96,10.85-3.93,14.66M51.16,22c-1.01.9-2.75,3.6,1.38,4.34M23.38,50.3c1.09-1.03,1.99-2.89,2.24-6.16.92-11.9-7.91-4.16-8.89-2.96s-4.87,6.21,1.27,9.81c0,0,3.11,1.44,5.38-.69ZM31.3,60.79c.74,1.02,1.24,1.79,1.35,2.16.41,1.5,2.33,4.09,4.62,3.35,2.62-.85,5.08-3.88,6.11-7.57M23.32,50.36c.2.54.46,1,.75,1.4M50.34,51.76s1.34.88,4.68,1.58c4.79.99,6.26-1.95,6.66-2.91.47-1.15,1.49-3.73-.18-4.51-.63-.29-1.94-.32-2.56.25-1.48,1.36.84,3.93-3.11,4.57-3.1.51-4.91-1.39-4.91-1.39M22.85,19.82c-1.55-2.74-6.1-1.68-5.18,3.79s2.47,6.11,4.44,5.71c1.56-.31,1.84-2.04,1.84-2.04M39.36,13.91c-1.54-3.35-7.15-2.63-7.39,2.48-.27,5.93,2.84,8,5.74,7.36,1.95-.43,2.66-2.13,2.73-3.2M28.77,25.53c-.79-1.07-3.55-.79-3.89,1.11-.4,2.23,1.75,3.06,3.12,2.78-2.17.61-1.85,2.86-.97,3.76,1.19,1.21,3.11.44,3.67-.36M38.41,26.2c-.2,0-.36.16-.36.36s.16.36.36.36.36-.16.36-.36-.16-.36-.36-.36ZM37.31,28.87c-.2,0-.36.16-.36.36s.16.36.36.36.36-.16.36-.36-.16-.36-.36-.36ZM18.21,32.16c-.2,0-.36.16-.36.36s.16.36.36.36.36-.16.36-.36-.16-.36-.36-.36ZM17.55,34.55c-.2,0-.36.16-.36.36s.16.36.36.36.36-.16.36-.36-.16-.36-.36-.36ZM20.39,33.27c-.2,0-.36.16-.36.36s.16.36.36.36.36-.16.36-.36-.16-.36-.36-.36ZM40.59,27.16c-.2,0-.36.16-.36.36s.16.36.36.36.36-.16.36-.36-.16-.36-.36-.36ZM21.58,20.08c-.48.12-.71.86-.51,1.64s.75,1.31,1.23,1.19.71-.86.51-1.64-.75-1.31-1.23-1.19ZM37.69,13.94c-.48.12-.71.86-.51,1.64s.75,1.31,1.23,1.19.71-.86.51-1.64-.75-1.31-1.23-1.19Z"/>
  <g>
    <ellipse cx="21.93" cy="21.54" rx=".84" ry="1.27" transform="translate(-7.05 11.3) rotate(-25.03)"/>
    <ellipse cx="38.24" cy="15.47" rx=".84" ry="1.27" transform="translate(-2.95 17.63) rotate(-25.03)"/>
    <circle cx="38.41" cy="26.56" r=".62"/>
    <circle cx="37.31" cy="29.22" r=".62"/>
    <circle cx="20.39" cy="33.62" r=".62"/>
    <circle cx="18.21" cy="32.52" r=".62"/>
    <circle cx="17.55" cy="34.9" r=".62"/>
    <circle cx="40.59" cy="27.52" r=".62"/>
  </g>
</svg>