<?xml version="1.0" encoding="UTF-8"?>
<svg id="Pink01" xmlns="http://www.w3.org/2000/svg" viewBox="0 0 130 110">
  <defs>
    <style>
      .cls-1 {
        fill: #ff6b6b;
      }

      .cls-2 {
        fill: none;
        stroke: #000;
        stroke-linecap: round;
        stroke-linejoin: round;
        stroke-width: 3px;
      }

      .cls-3 {
        fill: #4ecdc4;
      }
    </style>
  </defs>
  <g>
    <path class="cls-3" d="M127.82,91.98c-.87,19.91-21.68,16.26-21.68,16.26,0,0,2.43-20.42,21.68-16.26Z"/>
    <path class="cls-3" d="M1.96,84.93c18.53-7.35,23.71,13.12,23.71,13.12,0,0-19.63,6.14-23.71-13.12Z"/>
    <path class="cls-1" d="M72.32,13.15C37.24,31.86,23.1,45.17,24.81,66.3h.17c1.04,10.84,7.65,29.86,38.09,29.86,3.19,0,6.29-.35,9.26-.99,2.97.64,6.06.99,9.26.99,30.44,0,37.05-19.02,38.09-29.86h.17c1.33-23.41-17.04-36.1-47.52-53.15Z"/>
  </g>
  <path class="cls-2" d="M125.98,88.18c-.87,19.91-21.68,16.26-21.68,16.26,0,0,2.43-20.42,21.68-16.26ZM26.8,93.23s-5.19-20.48-23.71-13.12c4.09,19.26,23.71,13.12,23.71,13.12ZM21.94,57.2c0,9.59,4.31,33.25,38.26,33.25,3.19,0,6.29-.35,9.26-.99,2.97.64,6.06.99,9.26.99,33.95,0,38.26-23.66,38.26-33.25M21.94,60.58c-1.7-21.13,12.43-34.44,47.52-53.15,30.48,17.05,48.85,29.74,47.52,53.15M69.46,89.46c-22.77-9.39-21.92-32.26-10.91-49.63"/>
</svg>