<?xml version="1.0" encoding="UTF-8"?>
<svg id="Pink02" xmlns="http://www.w3.org/2000/svg" viewBox="0 0 130 110">
  <defs>
    <style>
      .cls-1 {
        fill: #ff6b6b;
      }

      .cls-2 {
        fill: none;
        stroke: #000;
        stroke-linecap: round;
        stroke-linejoin: round;
        stroke-width: 3px;
      }

      .cls-3 {
        fill: #4ecdc4;
      }
    </style>
  </defs>
  <g>
    <path class="cls-3" d="M7.96,90.98c.87,19.91,21.68,16.26,21.68,16.26,0,0-2.43-20.42-21.68-16.26Z"/>
    <path class="cls-3" d="M128.82,83.93c-18.53-7.35-23.71,13.12-23.71,13.12,0,0,19.63,6.14,23.71-13.12Z"/>
    <path class="cls-1" d="M63.45,12.15c35.08,18.71,49.22,32.02,47.52,53.15h-.17c-1.04,10.84-7.65,29.86-38.09,29.86-3.19,0-6.29-.35-9.26-.99-2.97.64-6.06.99-9.26.99-30.44,0-37.05-19.02-38.09-29.86h-.17c-1.33-23.41,17.04-36.1,47.52-53.15Z"/>
  </g>
  <path class="cls-2" d="M25.47,104.44s-20.81,3.65-21.68-16.26c19.25-4.16,21.68,16.26,21.68,16.26ZM126.69,80.1c-18.53-7.35-23.71,13.12-23.71,13.12,0,0,19.63,6.14,23.71-13.12ZM12.8,57.2c0,9.59,4.31,33.25,38.26,33.25,3.19,0,6.29-.35,9.26-.99,2.97.64,6.06.99,9.26.99,33.95,0,38.26-23.66,38.26-33.25M12.8,60.58c-1.33-23.41,17.04-36.11,47.52-53.15,35.08,18.71,49.22,32.02,47.52,53.15M71.22,39.83c11.01,17.36,11.86,40.24-10.91,49.63"/>
</svg>